<svg id="Layer_1" data-name="Layer 1" xmlns="http://www.w3.org/2000/svg" viewBox="0 0 953.87 329.38"><defs><style>.cls-1{fill:#fff;}.cls-2{fill:#1f417d;}.cls-3{fill:#97bee5;}</style></defs><title>lockupFullColor</title><path class="cls-1" d="M129.39,399.28C71.94,365.11-.52,315.46-0.52,227.77V135.19c26.5-10,67.45-22.57,129.9-22.57,63.17,0,106.53,13.66,129.91,22.57v92.58c0,88.42-75.26,139.38-129.91,171.51h0Z" transform="translate(0.52 -112.62)"/><path class="cls-2" d="M81.57,355.45a466.65,466.65,0,0,0,47.83,32.16h0c0.15-14.45-.32-23,9.46-33.19,4-4.14,8-8.36,11.72-12.18,2.78-2.88,5-5,6.34-5,0.94,0,1.36.49,1.36,1.75a29.27,29.27,0,0,0,3.51,11.7c3.65,7,9.05,8,10.78,8.35,41.87-31.52,76.88-72.77,76.88-131.46V142c-10.32-3.51-52.74-19.78-120.06-19.78S19.65,138.53,9.33,142v85.53A135.69,135.69,0,0,0,27.24,295.5c1.11-11.88,9.15-17.51,9.15-29.19,0-8.15-2.31-13.29-2.31-20.11,0-12.33,16.65-37.7,25.28-48a2.31,2.31,0,0,1,1.51-1,1.83,1.83,0,0,1,1.47,1c0.88,1.35,1.26,2.06,2.2,2.06a1.18,1.18,0,0,0,1.31-1.37c0-2.15-2.48-5.73-2.48-19.75,0-9.8,2.28-11.88,8.37-17.84,1.11-1.09,4.52-4.37,7.77-4.37,3.62,0,5.41,2.14,7.64,4.4,3.77,3.83,9,10.62,9.87,11.69a1.13,1.13,0,0,0,1,.58c1.74,0,3.2-.52,10.76-0.52,13.74,0,34.45,2.16,45.1,5.64,5.48,1.79,6.62,3,8.08,3a0.7,0.7,0,0,0,.77-0.83c0-.69-1.44-1.81-1.44-2.75a1.67,1.67,0,0,1,1-1.36c7.94-4.26,14.72-7.49,20.92-7.49,3.61,0,5.39,3.13,6.91,6.22a21,21,0,0,1,2.46,9,27.58,27.58,0,0,1-5.77,17.12c1.22,1.26,3,3.16,4,4.43,1.88,2.25,4.15,5.19,4.15,8.24a29.65,29.65,0,0,1-1,5c-0.16.74-.81,2.21-2.09,2.19s-1.45-1.28-1.5-2.4c0-.23,0-0.74,0-0.85a11.6,11.6,0,0,0-2.92-8c-2.58-2.64-5-4.56-7.94-4.56h-1a10.9,10.9,0,0,0-8.5,3.46,8.08,8.08,0,0,0-2.62,5.95c0,1.48,1,3.24,2.35,5.93,0.79,1.59,2.83,5.37,3.94,7.32a4,4,0,0,0,3.61,2.29c3.42,0,6.4-.47,6.4-1.5a0.51,0.51,0,0,0-.62-0.52c-0.2,0-.67.06-1.09,0.06-4.47,0-6.86-5.69-9.1-10.85,1.71-1.66,3.64-3.37,7.15-3.37,4.45,0,7.37,3,7.37,6.88a10.34,10.34,0,0,1-.94,4.27,2,2,0,0,0-.27.8c0,0.61.77,0.73,2,1,0.43,0.1,1.26.29,1.76,0.44a5.21,5.21,0,0,1,3.29,3.09c0.39,1,1.28,3.46,1.48,4a28,28,0,0,1,1.92,9.25,26.73,26.73,0,0,1-1.34,9.06c-1.37,5.08-2,7-2.2,9.79a12,12,0,0,1,.73,1.63,19.13,19.13,0,0,1,1.77,7.76v2.63a19.88,19.88,0,0,1-4.23,12c-1.71,2.31-4.16,5.56-5.57,7.37a4.71,4.71,0,0,1-3.51,1.88,9.9,9.9,0,0,1-2.2-.41l-3.45-.87c-3-.76-4.1-2.71-5.07-5.34-0.14-.39-0.6-1.51-0.74-1.87-0.72-1.83-1.12-3-2.26-3-0.85,0-1.66.55-2.51,1.83-3,4.5-4.61,6.13-9.87,7.43-1.84.45-5.57,1.23-7.66,1.69-3.15.7-8.78,2.18-11.95,2.18a19.14,19.14,0,0,1-2.11-.12c-4.32-.61-7.39-0.89-12.77-7.32-7.4-8.83-6.64-10.07-7.08-22,0-1.33-.49-3-1.87-3s-1.78,2.53-2.23,6.11c-0.53,4.21-1.5,8.58-3.57,8.58a13.34,13.34,0,0,1-4.65-.95c-2.69-.88-9.39-3.14-12.91-4.3-4.8-1.58-9.39-2.84-11.24-7.09-0.87-2-2.48-5.72-3.29-7.66-0.57-1.36-1-2.07-1.89-2.07-1.28,0-1.56,1.51-1.7,2.71-0.16,1.35-.5,4.48-0.67,6.42-0.72,8.31-2.38,11.84-5.9,16.48-1.61,2.12-3.14,4.29-4.93,6.65-3.68,4.88-5.9,9.89-5.79,19.35,0,0.61,0,4.14,0,5.77,0.33,14.09,3.9,21,27.65,39.91h0Zm85-43.16c-1.11.27-3.3,0.81-13,.81-14.74,0-17.24-3.62-17.24-6.49,0-4.8,21.14-8.18,29.47-8.18,8,0,11.5,2.56,11.5,4.52,0,2.26-3.6,7.63-10.7,9.34h0Zm-28.54-91.06c0-3.39-3.82-8.37-10.48-8.37a12.85,12.85,0,0,0-11.63,8c1.42,2.75,2.79,5.65,8.47,7.37,0.75,0.23,1.5.25,1.5,0.89,0,0.91-1,1.37-3,1.37-6.44,0-10.27-2.63-12-4.85a46.78,46.78,0,0,1-6,1c-2,.07-2.87-1.24-2.87-3a8.71,8.71,0,0,1,1-3.77c0.37-.77.77-1.56,1.06-2.12,1-2,2.53-6.32,8.41-9.66,0.68-.39,2.46-1.47,3.37-2,3.33-2,5.84-2.42,9.8-2.42h2.9c4.74,0,7.17,1.33,9.26,3.09,4.25,3.57,6.58,5.52,6.58,8.17,0,2.95-.16,5.2-2.51,8.31-2,2.65-5,4.41-6.89,4.41a0.58,0.58,0,0,1-.7-0.59,1.68,1.68,0,0,1,.91-1c1.57-1.27,2.27-3.52,2.77-4.77h0Zm-59.31-19c1.46,0,2.57-1,4.78-3.41,4.94-5.46,9.71-6.19,9.71-8.52a6.4,6.4,0,0,0-1.36-3.14,208.69,208.69,0,0,1-10.64-18.63c-1.14-2.16-2.62-3.64-3.74-3.64-1.82,0-3.74,2.12-4.85,3.94-1.57,2.57-3.14,5.46-3.14,8.09a57,57,0,0,0,2.63,15.88c1.78,5,4.37,9.43,6.62,9.43h0Zm95.44-10.81a1.55,1.55,0,0,1-1.08-1.27c0-1,.7-2,2.11-3.85,3.25-4.36,7.72-9.71,9.36-9.71,0.8,0,1.3.55,2.29,2.42a11,11,0,0,1,1.09,4.73c0,5.8-2,9.87-5.1,14.48a42.61,42.61,0,0,0-8.67-6.79h0Zm-5.73,88c0-2,1.62-5,1.62-7.74,0-3.24-4-4.27-7.06-4.7-6.49-.9-8.66-0.61-8.66-2,0-1,.87-2,2.06-3.72,1.75-2.51,5.91-3.46,8.12-3.76a70.67,70.67,0,0,1,10-.79,55.64,55.64,0,0,1,9.72.94c4,0.69,4.6,2.36,4.6,4.23v1.87c0,1.88-1.54,2.85-4.32,3.46-0.69.15-1.67,0.33-2.14,0.42-2,.42-4.51.82-5.39,3.36-1.9,5.46-5.2,9.74-7.64,9.63a1,1,0,0,1-.92-1.15h0Z" transform="translate(0.52 -112.62)"/><path class="cls-3" d="M156.29,351.46c0.34-3.73,2-9.95,2-12.49h0c0-1.26-.42-1.75-1.36-1.75-1.31,0-3.56,2.14-6.34,5-3.69,3.82-7.76,8-11.72,12.18-9.78,10.23-9.31,18.74-9.46,33.19h0c10.87-6.55,20.81-12.85,28.17-17.87-1.09-6-2-10.34-1.28-18.28h0ZM53.92,315.55c0-1.63,0-5.15,0-5.77-0.12-9.47,2.1-14.47,5.79-19.35,1.78-2.36,3.31-4.53,4.93-6.65,3.52-4.63,5.18-8.17,5.9-16.48,0.17-1.95.51-5.07,0.67-6.42,0.14-1.2.43-2.71,1.7-2.71,0.89,0,1.31.71,1.89,2.07,0.82,1.93,2.42,5.66,3.29,7.66,1.85,4.25,6.44,5.51,11.24,7.09,3.52,1.16,10.22,3.43,12.91,4.3a13.34,13.34,0,0,0,4.65.95c2.07,0,3-4.37,3.57-8.58,0.45-3.58,1-6.11,2.23-6.11s1.82,1.66,1.87,3c0.44,11.92-.32,13.17,7.08,22,5.38,6.42,8.45,6.71,12.77,7.32-1.6-.48-3.67-2.33-3.67-6.24v-4.29a16.41,16.41,0,0,1,1.32-6.79c0.5-1.16,1.09-3.26,1.64-4.54,0.94-2.19.49-2.74,0.49-4.28s-0.54-3.24-1.82-7.14c-0.66-2-1.56-4.92-2.41-7.31-2.68-7.48-3.77-9.24-12.71-10.43-2.87-.38-15.42-2.16-18-2.53-10-1.42-17.9-1.9-22-8.63-4.89-8-4.39-17.83-9.09-17.83-2.23,0-3.41,2.49-3.41,6.13,0,3.82,1.44,10,1.44,20.77,0,9.3-.87,11.9-6.29,18.75-1.41,1.78-3.3,4.39-4.51,5.91-4,5.06-5.82,7.92-5.58,13.82a201,201,0,0,0,4.17,32.32h0Zm107.77-64.69a8.79,8.79,0,0,1,.72,2.93,4.19,4.19,0,0,1-1.5,3.55c-0.62.55-1.3,1.13-1.93,1.72a7,7,0,0,0-2.56,2.12c-1.18,1.7-2.06,2.73-2.06,3.72a0.85,0.85,0,0,0,.32.72,5.13,5.13,0,0,1-2-4.16c0-1.31.43-2,.43-3.23a9.49,9.49,0,0,0-.47-2.65c-2-6.7-5.38-14.67-7.45-20.09s-3.78-8.55-6.18-8.55c-1.33,0-2.51.65-3.91,0.65,1.91,0,4.87-1.76,6.89-4.41,2.35-3.11,2.51-5.36,2.51-8.31a5.36,5.36,0,0,0-1.51-3.52c3,3.09,5,7,7,11.38,4.5,9.54,8.4,20,11.67,28.15h0Zm31.46-19.93h0c0.39,1,1.28,3.46,1.48,4a28,28,0,0,1,1.92,9.25,26.73,26.73,0,0,1-1.34,9.06c-1.37,5.08-2,7-2.2,9.79-0.38-.79-7.61-13.25-8.16-14.27a6.54,6.54,0,0,1-1-3.17c0-1.27.54-2,2.09-3,0.92-.58,2.12-1.27,2.93-1.68,3.72-1.91,4.61-4.26,4.61-6.78a21.41,21.41,0,0,0-.32-3.24h0Z" transform="translate(0.52 -112.62)"/><path class="cls-2" d="M945.34,394c0.09-5.27-2.16-13.46-11.49-13.46-8.38,0-12.05,7.72-12.71,13.46h24.2ZM921,399.91c0.19,11.2,7.34,15.82,15.63,15.82a30,30,0,0,0,12.62-2.35l1.41,5.93a36.91,36.91,0,0,1-15.16,2.82c-14,0-22.41-9.23-22.41-23s8.1-24.58,21.37-24.58c14.88,0,18.84,13.09,18.84,21.47a31.42,31.42,0,0,1-.28,3.86H921ZM907.3,419.49a30.5,30.5,0,0,1-13.09,2.64c-13.75,0-22.7-9.32-22.7-23.26s9.61-24.2,24.48-24.2A27.7,27.7,0,0,1,907.49,377l-1.89,6.4a19.19,19.19,0,0,0-9.6-2.17c-10.45,0-16.1,7.72-16.1,17.23,0,10.55,6.78,17,15.82,17a23.54,23.54,0,0,0,10.17-2.26l1.41,6.21h0Zm-84.75-31.55c0-4.71-.09-8.57-0.37-12.34h7.34l0.47,7.53h0.19a16.76,16.76,0,0,1,15.07-8.57c6.31,0,16.1,3.77,16.1,19.4v27.22h-8.29V394.92c0-7.34-2.73-13.46-10.55-13.46a12.16,12.16,0,0,0-11.68,12.34v27.4h-8.29V387.95h0Zm-18.27,6c0.09-5.27-2.16-13.46-11.49-13.46-8.38,0-12.05,7.72-12.71,13.46h24.2ZM780,399.91c0.19,11.2,7.34,15.82,15.63,15.82a30,30,0,0,0,12.62-2.35l1.41,5.93a36.91,36.91,0,0,1-15.16,2.82c-14,0-22.41-9.23-22.41-23s8.1-24.58,21.37-24.58c14.88,0,18.84,13.09,18.84,21.47a31.42,31.42,0,0,1-.28,3.86H780Zm-26.65,21.28V375.61h8.29v45.58h-8.29Zm9.23-58.38c0.1,2.83-2,5.09-5.27,5.09a4.92,4.92,0,0,1-5-5.09,5,5,0,0,1,5.18-5.18,4.92,4.92,0,0,1,5.09,5.18h0Zm-18.93,56.69a30.49,30.49,0,0,1-13.09,2.64c-13.75,0-22.69-9.32-22.69-23.26s9.6-24.2,24.48-24.2A27.67,27.67,0,0,1,743.82,377l-1.88,6.4a19.22,19.22,0,0,0-9.61-2.17c-10.45,0-16.1,7.72-16.1,17.23,0,10.55,6.78,17,15.82,17a23.54,23.54,0,0,0,10.17-2.26l1.41,6.21h0Zm-80.32-8.29A29,29,0,0,0,678,415.35c8.38,0,13.28-4.42,13.28-10.83,0-5.93-3.39-9.32-12-12.62-10.36-3.67-16.76-9-16.76-18,0-9.89,8.19-17.23,20.53-17.23,6.5,0,11.2,1.51,14,3.11l-2.26,6.69a25.29,25.29,0,0,0-12.05-3c-8.66,0-12,5.18-12,9.51,0,5.93,3.87,8.85,12.62,12.24,10.74,4.14,16.19,9.32,16.19,18.65,0,9.79-7.25,18.27-22.22,18.27-6.12,0-12.81-1.79-16.2-4l2.07-6.87h0Zm-29.95-21.38c0-5.37-.09-10-0.37-14.22h7.25l0.28,8.95h0.38c2.07-6.12,7.06-10,12.62-10a9,9,0,0,1,2.35.28v7.82a12.5,12.5,0,0,0-2.82-.28c-5.84,0-10,4.43-11.11,10.64a23.14,23.14,0,0,0-.38,3.86v24.29h-8.19V389.83h0ZM615.09,394c0.1-5.27-2.16-13.46-11.49-13.46-8.38,0-12.05,7.72-12.71,13.46h24.2Zm-24.29,5.93c0.19,11.2,7.34,15.82,15.63,15.82A30,30,0,0,0,619,413.37l1.41,5.93a36.93,36.93,0,0,1-15.16,2.82c-14,0-22.41-9.23-22.41-23s8.1-24.58,21.38-24.58c14.88,0,18.83,13.09,18.83,21.47a31.57,31.57,0,0,1-.28,3.86h-32Zm-50,3a15.42,15.42,0,0,0,.38,3,12.79,12.79,0,0,0,12.43,9.7c8.66,0,13.84-7.06,13.84-17.52,0-9.13-4.71-16.95-13.56-16.95a13.21,13.21,0,0,0-12.62,10.17,16.21,16.21,0,0,0-.47,3.39v8.19h0Zm-8.57,18.27c0.19-3.11.37-7.72,0.37-11.77V354.33h8.19V383H541c2.92-5.09,8.19-8.38,15.54-8.38,11.3,0,19.3,9.42,19.21,23.26,0,16.29-10.27,24.39-20.43,24.39-6.6,0-11.87-2.54-15.26-8.57h-0.28l-0.38,7.53h-7.15Zm-41-45.58,10,26.93c1,3,2.16,6.59,2.92,9.32h0.19c0.85-2.73,1.79-6.22,2.92-9.51l9-26.74h8.76L512.64,408.1c-5.93,15.63-10,23.63-15.63,28.53A22.46,22.46,0,0,1,486.83,442l-2.07-7a21.9,21.9,0,0,0,7.25-4,25.12,25.12,0,0,0,7-9.23,5.93,5.93,0,0,0,.66-2,7.21,7.21,0,0,0-.56-2.16l-16.86-42h9Zm-11.11,43.5c-3,1.51-9,3-16.76,3-17.89,0-31.36-11.3-31.36-32.11,0-19.87,13.47-33.33,33.15-33.33,7.91,0,12.9,1.7,15.07,2.82l-2,6.69a29.87,29.87,0,0,0-12.81-2.64c-14.88,0-24.77,9.51-24.77,26.18,0,15.54,8.94,25.52,24.39,25.52a32.8,32.8,0,0,0,13.37-2.64l1.7,6.5h0Zm-95.39-29.28c0-5.37-.09-10-0.38-14.22h7.25l0.28,8.95h0.38c2.07-6.12,7.06-10,12.62-10a9,9,0,0,1,2.35.28v7.82a12.48,12.48,0,0,0-2.82-.28c-5.84,0-10,4.43-11.11,10.64a23.16,23.16,0,0,0-.38,3.86v24.29h-8.19V389.83h0Zm-46.61,8.66c0,10,5.74,17.51,13.84,17.51,7.91,0,13.84-7.44,13.84-17.7,0-7.72-3.87-17.51-13.66-17.51s-14,9-14,17.7h0ZM374.3,398c0,16.86-11.68,24.2-22.69,24.2-12.33,0-21.85-9-21.85-23.45,0-15.26,10-24.2,22.6-24.2,13.09,0,21.94,9.51,21.94,23.45h0Zm-66.67,23.17V381.92h-6.4v-6.31h6.4v-2.16c0-6.4,1.41-12.24,5.27-15.92A15.86,15.86,0,0,1,324,353.3a19.21,19.21,0,0,1,7.06,1.32l-1.13,6.4a12.33,12.33,0,0,0-5.27-1c-7.06,0-8.85,6.21-8.85,13.18v2.45h11v6.31h-11v39.27h-8.19ZM608.77,299.82c0.1-5.27-2.16-13.46-11.49-13.46-8.38,0-12.05,7.72-12.71,13.46h24.2Zm-23.46,5.93c0.19,11.2,7.34,15.82,15.63,15.82a30,30,0,0,0,12.62-2.35l1.41,5.93A36.92,36.92,0,0,1,599.8,328c-14,0-22.41-9.23-22.41-23s8.1-24.58,21.38-24.58c14.88,0,18.83,13.09,18.83,21.47a31.56,31.56,0,0,1-.28,3.86h-32ZM479.07,268.37v13.09h11.86v6.31H479.07v24.58c0,5.65,1.6,8.85,6.21,8.85a18.46,18.46,0,0,0,4.8-.56l0.38,6.22a20.31,20.31,0,0,1-7.34,1.13c-3.86,0-7-1.22-8.95-3.48-2.35-2.45-3.2-6.5-3.2-11.87V287.76h-7.06v-6.31H471V270.53l8.1-2.17h0Zm82.28,0v13.09h11.86v6.31H561.36v24.58c0,5.65,1.6,8.85,6.21,8.85a18.46,18.46,0,0,0,4.8-.56l0.38,6.22a20.31,20.31,0,0,1-7.34,1.13c-3.86,0-7-1.22-8.95-3.48-2.35-2.45-3.2-6.5-3.2-11.87V287.76h-7.06v-6.31h7.06V270.53l8.1-2.17h0ZM537.63,314.6c0,4.71.09,8.85,0.37,12.43h-7.34l-0.47-7.44H530a17.14,17.14,0,0,1-15.06,8.48c-7.16,0-15.73-4-15.73-20V281.46h8.29v25.24c0,8.66,2.63,14.5,10.17,14.5a12,12,0,0,0,10.92-7.53,12.13,12.13,0,0,0,.75-4.24v-28h8.29V314.6h0Zm-90,12.43V281.46h8.29V327h-8.29Zm9.23-58.38c0.1,2.83-2,5.09-5.27,5.09a4.92,4.92,0,0,1-5-5.09,5,5,0,0,1,5.18-5.18,4.92,4.92,0,0,1,5.09,5.18h0Zm-30.42-.28v13.09h11.86v6.31H426.45v24.58c0,5.65,1.6,8.85,6.21,8.85a18.48,18.48,0,0,0,4.81-.56l0.38,6.22A20.32,20.32,0,0,1,430.5,328c-3.86,0-7-1.22-8.95-3.48-2.35-2.45-3.2-6.5-3.2-11.87V287.76h-7.06v-6.31h7.06V270.53l8.1-2.17h0Zm-48.4,50.19a21.7,21.7,0,0,0,10.92,3.3c6,0,8.85-3,8.85-6.78,0-4-2.35-6.12-8.48-8.38-8.19-2.92-12.05-7.44-12.05-12.9,0-7.34,5.93-13.37,15.73-13.37a22.74,22.74,0,0,1,11.21,2.83l-2.07,6a17.74,17.74,0,0,0-9.32-2.64c-4.9,0-7.63,2.82-7.63,6.21,0,3.77,2.73,5.46,8.66,7.72,7.91,3,12,7,12,13.75,0,8-6.22,13.65-17,13.65A26,26,0,0,1,376,324.86l2.07-6.31h0Zm-51.13-24.77c0-4.71-.09-8.57-0.37-12.34h7.35l0.47,7.53h0.19a16.76,16.76,0,0,1,15.07-8.57c6.31,0,16.1,3.77,16.1,19.4V327h-8.29V300.76c0-7.34-2.73-13.46-10.55-13.46a11.77,11.77,0,0,0-11.11,8.47,11.92,11.92,0,0,0-.56,3.86V327h-8.29V293.79h0Zm-15-30.23V327h-8.19V263.57h8.19ZM637.78,154.22a34.36,34.36,0,0,0-10.13-1.93c-9.25,0-13,5-13,9.46,0,5.8,4.31,8.48,9.27,9.73l7.9,2.07c11.12,3,23.43,7.68,23.43,24.16,0,15.12-9.72,25.28-31.2,25.28a79.33,79.33,0,0,1-27.1-4.43v-21h14.28v10.26A60.66,60.66,0,0,0,625.49,210c8.44,0,12.53-3.52,12.53-9.54,0-5-2.82-8.59-13-11.32l-6.79-1.87c-15.55-4.21-20.84-11.68-20.84-24,0-12.62,8.42-22.64,29.8-22.64,9.18,0,18.36,1.59,24.84,4.2v19H637.78v-9.66h0Zm102.94,42.17c-13,0-17,2.73-17,7.84,0,3.52,2.5,7.16,8.75,7.16s12.73-5,12.73-15h-4.44Zm4.66-12.62c0-8.21-4-11.36-12-11.36a28.83,28.83,0,0,0-9.86,1.7v8H710.6V167c2.13-1.21,11.68-6.14,22.56-6.14,16.55,0,27.21,6.74,27.21,23.39V210h6.14v11.59H747.27l-0.46-8.09h-0.23c-1.18,1.66-5.52,9.46-18.93,9.46s-19.89-8-19.89-17.28c0-11.31,8.68-19.09,30.48-19.09h7.14v-2.85h0Zm-75.56-34.32h15.91v12.73h15.91v11.59H685.73v26.48c0,8,2.79,10.46,9.38,10.46a41.86,41.86,0,0,0,7.09-.91v11.29A51.46,51.46,0,0,1,689.11,223c-11.71,0-19.29-6.29-19.29-16.75V173.77h-8.07V162.18h8.07V149.45h0Zm107.23,0H793v12.73h15.91v11.59H793v26.48c0,8,2.79,10.46,9.38,10.46a41.77,41.77,0,0,0,7.08-.91v11.29A51.42,51.42,0,0,1,796.33,223c-11.71,0-19.29-6.29-19.29-16.75V173.77H769V162.18H777V149.45h0ZM523.37,173.77h-7.73V162.18h21.83l0.43,7.78h0.23c1.05-1.64,6.24-9.14,18.27-9.14,15.09,0,23,10.63,23,23.7V210h6.82v11.59H557V210h6.48V187.26c0-8.29-4.6-12.81-12.15-12.81-6.82,0-12.06,3.83-12.06,12.81V210h6.82v11.59H516.89V210h6.48V173.77h0Zm-77.49,0h-7.73V162.18H460l0.43,7.78h0.23c1.05-1.64,6.24-9.14,18.27-9.14,15.09,0,23,10.63,23,23.7V210h6.82v11.59H479.52V210H486V187.26c0-8.29-4.6-12.81-12.15-12.81-6.82,0-12.06,3.83-12.06,12.81V210h6.82v11.59H439.4V210h6.48V173.77h0Zm408.52,10.8c0-8.18-4.66-12.84-12-12.84s-11.48,4.77-12.16,12.84H854.4Zm-24.1,10.91c0.45,9.43,7.73,15.23,18.87,15.23a44.59,44.59,0,0,0,18.41-3.76v12.28c-2.42,1-9,3.75-21.94,3.75-23,0-32.62-14.32-32.62-30.8,0-18.53,11.25-31.37,29.89-31.37,20.46,0,28.75,15.46,28.75,34.66H830.3ZM413.85,184.57c0-8.18-4.66-12.84-12-12.84s-11.48,4.77-12.16,12.84h24.21Zm-24.1,10.91c0.45,9.43,7.73,15.23,18.87,15.23A44.59,44.59,0,0,0,427,206.95v12.28c-2.42,1-9,3.75-21.93,3.75-23,0-32.62-14.32-32.62-30.8,0-18.53,11.25-31.37,29.89-31.37,20.46,0,28.75,15.46,28.75,34.66H389.76Zm-51.23-16.14c8.3,0,13.71-4.77,13.71-12.84,0-7.33-4.73-12.85-13.94-12.85H328.14v25.69h10.38Zm-27-25.69h-7.84V142.06h36.53c19.21,0,29.24,10.09,29.24,24.44,0,17-13.44,24.43-29.24,24.43H328.14V210H336v11.59H303.71V210h7.84V153.66h0Z" transform="translate(0.52 -112.62)"/></svg>